<!-- icon666.com - MILLIONS vector ICONS FREE --><svg viewBox="0 0 60 37" xmlns="http://www.w3.org/2000/svg"><g id="Page-1" fill="none" fill-rule="evenodd"><g id="014---Taxi"><path id="Path" d="m40 30h-36c-1.65685425 0-3-1.3431458-3-3v-2c0-.5522847.44771525-1 1-1v-7.265c-.00006145-.9952873.73172701-1.8391668 1.717-1.98l5.283-.755h34l13.264 1.769c.9935702.132309 1.7357497.9796591 1.736 1.982v6.249c.5522847 0 1 .4477153 1 1v2c0 1.6568542-1.3431458 3-3 3z" fill="#f0c419"></path><path id="Path" d="m39 30v-7c0-.5522847-.4477153-1-1-1h-16c-.5522847 0-1 .4477153-1 1v7z" fill="#35495e"></path><path id="Path" d="m40 25h-3v-4h-2v4h-2v-4h-2v4h-2v-4h-2v4h-2v-4h-2v4h-3v2h3v3h2v-3h2v3h2v-3h2v3h2v-3h2v3h2v-3h3z" fill="#f0c419"></path><circle id="Oval" cx="46" cy="30" fill="#95a5a5" r="6"></circle><circle id="Oval" cx="14" cy="30" fill="#95a5a5" r="6"></circle><path id="Path" d="m58 24h-4c-.5522847 0-1-.4477153-1-1s.4477153-1 1-1h4c.5522847 0 1 .4477153 1 1s-.4477153 1-1 1z" fill="#f29c1f"></path><path id="Path" d="m7 24h-5c-.55228475 0-1-.4477153-1-1s.44771525-1 1-1h5c.55228475 0 1 .4477153 1 1s-.44771525 1-1 1z" fill="#f29c1f"></path><path id="Path" d="m9 14 7.105-7.993c.5692329-.64043964 1.3851517-1.00691165 2.242-1.007h15.306c.8585911-.00134153 1.6766096.365256 2.247 1.007l7.1 7.993z" fill="#2fa8cc"></path><path id="Path" d="m25 15c-.5522847 0-1-.4477153-1-1v-9c0-.55228475.4477153-1 1-1s1 .44771525 1 1v9c0 .5522847-.4477153 1-1 1z" fill="#f0c419"></path><path id="Path" d="m33 19h-4c-.5522847 0-1-.4477153-1-1s.4477153-1 1-1h4c.5522847 0 1 .4477153 1 1s-.4477153 1-1 1z" fill="#95a5a5"></path><path id="Path" d="m21 5 1.5-3.743c.3033953-.75823183 1.0373221-1.2558294 1.854-1.257h4.292c.8166779.0011706 1.5506047.49876817 1.854 1.257l1.5 3.743z" fill="#35495e"></path><path id="Path" d="m59 37h-58c-.55228475 0-1-.4477153-1-1s.44771525-1 1-1h58c.5522847 0 1 .4477153 1 1s-.4477153 1-1 1z" fill="#7f8c8d"></path><path id="Path" d="m29 11c-.5047125-.0005564-.929899-.377126-.9914367-.8780733-.0615377-.50094719.259865-.96922976.7494367-1.0919267l4-1c.5339666-.12972141 1.072566.19570268 1.2060974.72872921.1335314.53302654-.1880381 1.07393623-.7200974 1.21127079l-4 1c-.0797438.0202442-.1617273.0303241-.244.03z" fill="#67b9cc"></path><path id="Path" d="m17 11c-.5047125-.0005564-.929899-.377126-.9914367-.8780733-.0615377-.50094719.259865-.96922976.7494367-1.0919267l4-1c.5339666-.12972141 1.072566.19570268 1.2060974.72872921.1335314.53302654-.1880381 1.07393623-.7200974 1.21127079l-4 1c-.0797438.0202442-.1617273.0303241-.244.03z" fill="#67b9cc"></path><path id="Path" d="m58 17.75v2.25h-3c-1.1032019-.0032948-1.9967052-.8967981-2-2v-2.67l3.26.44c.9944041.1303778 1.7384814.9770864 1.74 1.98z" fill="#f3d55b"></path></g></g></svg>